<!DOCTYPE svg PUBLIC "-//W3C//DTD SVG 1.1//EN" "http://www.w3.org/Graphics/SVG/1.1/DTD/svg11.dtd">
<!-- Uploaded to: SVG Repo, www.svgrepo.com, Transformed by: SVG Repo Mixer Tools -->
<svg fill="#ffffff" height="800px" width="800px" version="1.1" id="Layer_1" xmlns="http://www.w3.org/2000/svg" xmlns:xlink="http://www.w3.org/1999/xlink" viewBox="0 0 512 512" xml:space="preserve" stroke="#ffffff">
<g id="SVGRepo_bgCarrier" stroke-width="0"/>
<g id="SVGRepo_tracerCarrier" stroke-linecap="round" stroke-linejoin="round"/>
<g id="SVGRepo_iconCarrier"> <g> <g> <path d="M509.176,107.62L442.399,7.454c-3.096-4.644-8.308-7.435-13.89-7.435H83.492c-5.583,0-10.793,2.79-13.89,7.435 L2.825,107.62c-7.39,11.084,0.586,25.954,13.89,25.954h16.694c0,10.978,0,354.604,0,361.712c0,9.22,7.475,16.694,16.694,16.694 c14.335,0,392.998,0,411.795,0c9.22,0,16.694-7.475,16.694-16.694c0-7.064,0-350.603,0-361.712h16.694 C508.613,133.574,516.554,118.686,509.176,107.62z M306.084,478.592H205.917v-61.213h16.694c9.22,0,16.694-7.475,16.694-16.694 c0-9.22-7.475-16.694-16.694-16.694h-16.694v-50.083h100.166V478.592z M445.204,367.296H406.25v-33.389h38.954V367.296z M445.204,300.518h-55.648c-9.22,0-16.694,7.475-16.694,16.694v66.778c0,9.22,7.475,16.694,16.694,16.694h55.648v77.907H339.473 V317.212c0-9.22-7.475-16.694-16.694-16.694H189.223c-9.22,0-16.694,7.475-16.694,16.694v161.379H66.798v-77.907h55.648 c9.22,0,16.694-7.475,16.694-16.694v-66.778c0-9.22-7.475-16.694-16.694-16.694H66.798V133.574h378.406V300.518z M66.798,367.296 v-33.389h38.954v33.389H66.798z M47.908,100.186l44.518-66.778h327.149l44.518,66.778H47.908z"/> </g> </g> <g> <g> <path d="M189.223,166.963h-66.778c-9.22,0-16.694,7.475-16.694,16.694v66.778c0,9.22,7.475,16.694,16.694,16.694h66.778 c9.22,0,16.694-7.475,16.694-16.694v-66.778C205.917,174.438,198.443,166.963,189.223,166.963z M172.529,233.741H139.14v-33.389 h33.389V233.741z"/> </g> </g> <g> <g> <path d="M389.556,166.963H256.001c-9.22,0-16.694,7.475-16.694,16.694v66.778c0,9.22,7.475,16.694,16.694,16.694h133.555 c9.22,0,16.694-7.475,16.694-16.694v-66.778C406.25,174.438,398.775,166.963,389.556,166.963z M306.084,233.741h-33.389v-33.389 h33.389V233.741z M372.861,233.741h-33.389v-33.389h33.389V233.741z"/> </g> </g> </g>
</svg>