<!DOCTYPE svg PUBLIC "-//W3C//DTD SVG 1.1//EN" "http://www.w3.org/Graphics/SVG/1.1/DTD/svg11.dtd">
<!-- Uploaded to: SVG Repo, www.svgrepo.com, Transformed by: SVG Repo Mixer Tools -->
<svg fill="#000000" height="800px" width="800px" version="1.1" id="Layer_1" xmlns="http://www.w3.org/2000/svg" xmlns:xlink="http://www.w3.org/1999/xlink" viewBox="0 0 512 512" xml:space="preserve">
<g id="SVGRepo_bgCarrier" stroke-width="0"/>
<g id="SVGRepo_tracerCarrier" stroke-linecap="round" stroke-linejoin="round"/>
<g id="SVGRepo_iconCarrier"> <g> <g> <g> <path d="M175.496,192.453c-13.789,0-25.008,11.219-25.008,25.008s11.219,25.008,25.008,25.008s25.008-11.219,25.008-25.008 S189.285,192.453,175.496,192.453z M175.496,229.421c-6.594,0-11.96-5.366-11.96-11.96s5.366-11.96,11.96-11.96 c6.596,0,11.96,5.366,11.96,11.96S182.091,229.421,175.496,229.421z"/> <path d="M256,242.468c13.789,0,25.008-11.219,25.008-25.008S269.789,192.453,256,192.453s-25.008,11.219-25.008,25.008 S242.211,242.468,256,242.468z M256,205.5c6.596,0,11.96,5.366,11.96,11.96s-5.366,11.96-11.96,11.96s-11.96-5.366-11.96-11.96 S249.406,205.5,256,205.5z"/> <path d="M336.504,242.468c13.789,0,25.008-11.219,25.008-25.008s-11.219-25.008-25.008-25.008s-25.008,11.219-25.008,25.008 S322.715,242.468,336.504,242.468z M336.504,205.5c6.595,0,11.96,5.366,11.96,11.96s-5.366,11.96-11.96,11.96 c-6.594,0-11.96-5.366-11.96-11.96S329.909,205.5,336.504,205.5z"/> <path d="M113.835,488.308h284.33c3.603,0,6.524-2.922,6.524-6.524V132.423c0-3.603-2.921-6.524-6.524-6.524h-284.33 c-3.603,0-6.524,2.92-6.524,6.524v349.361C107.311,485.386,110.232,488.308,113.835,488.308z M120.359,138.946h271.282v112.242 h-22.77c8.877-8.518,14.42-20.485,14.42-33.728c0-25.792-20.988-46.776-46.787-46.776c-17.11,0-32.096,9.24-40.252,22.987 c-8.156-13.747-23.141-22.987-40.252-22.987c-17.11,0-32.096,9.24-40.252,22.987c-8.156-13.747-23.142-22.987-40.252-22.987 c-25.798,0-46.787,20.984-46.787,46.776c0,13.243,5.543,25.21,14.42,33.728h-22.77V138.946z M215.748,241.25 c2.175,3.665,4.836,7.004,7.893,9.939h-15.785C210.913,248.254,213.573,244.914,215.748,241.25z M175.496,251.189 c-18.604,0-33.739-15.131-33.739-33.728s15.135-33.728,33.739-33.728c18.597,0,33.728,15.131,33.728,33.728 S194.094,251.189,175.496,251.189z M222.272,217.461c0-18.597,15.131-33.728,33.728-33.728s33.728,15.131,33.728,33.728 S274.597,251.189,256,251.189S222.272,236.058,222.272,217.461z M296.252,241.25c2.175,3.665,4.835,7.004,7.893,9.939h-15.785 C291.416,248.254,294.077,244.914,296.252,241.25z M302.776,217.461c0-18.597,15.131-33.728,33.728-33.728 c18.604,0,33.739,15.131,33.739,33.728s-15.135,33.728-33.739,33.728C317.906,251.189,302.776,236.058,302.776,217.461z M120.359,264.236h271.282v190.256h-12.232v-79.971c0-11.035-4.07-21.639-11.462-29.863c-2.583-2.868-4.607-6.173-6.011-9.815 c-1.393-3.623-2.099-7.43-2.099-11.316v-26.694c0-3.602-2.922-6.524-6.524-6.524h-30.444c-3.602,0-6.524,2.922-6.524,6.524 v26.693c0,6.455-1.973,12.7-5.601,17.949c-1.427-2.061-2.627-4.269-3.533-6.634c-1.393-3.623-2.099-7.43-2.099-11.316v-26.693 c0-3.602-2.922-6.524-6.524-6.524h-30.444c-3.602,0-6.524,2.922-6.524,6.524v26.693c0,6.45-1.97,12.69-5.606,17.951 c-1.433-2.07-2.636-4.28-3.538-6.636c-1.393-3.624-2.1-7.431-2.1-11.316v-26.693c0-3.602-2.922-6.524-6.524-6.524h-30.444 c-3.602,0-6.524,2.922-6.524,6.524v26.693c0,6.462-1.971,12.706-5.597,17.949c-1.421-2.056-2.621-4.264-3.535-6.634 c-1.393-3.623-2.099-7.43-2.099-11.316v-26.693c0-3.602-2.922-6.524-6.524-6.524h-30.445c-3.602,0-6.524,2.922-6.524,6.524 v26.693c0,7.81-2.881,15.316-8.109,21.132c-3.653,4.056-6.511,8.72-8.495,13.866c-1.969,5.122-2.967,10.504-2.967,15.996v79.971 h-12.232V264.236z M346.79,321.842v1.685c0,5.492,0.998,10.874,2.969,16.003c1.981,5.141,4.839,9.804,8.489,13.857 c5.232,5.82,8.113,13.326,8.113,21.135v79.971h-56.54v-79.971c0-3.885,0.706-7.693,2.101-11.32 c1.016-2.649,2.38-5.14,4.086-7.445c0.601-0.825,1.244-1.617,1.927-2.371c7.389-8.219,11.458-18.822,11.458-29.858v-1.685H346.79 z M329.393,308.794v-5.437h17.397v5.437H329.393z M264.077,352.38c6.835-8.07,10.593-18.259,10.593-28.853v-1.685h17.397v1.685 c0,5.493,0.998,10.875,2.965,15.989c1.802,4.71,4.372,9.028,7.641,12.878c-1.124,1.966-2.115,4.009-2.929,6.131 c-1.969,5.122-2.967,10.504-2.967,15.996v79.971h-26.824v-79.971C269.951,366.648,267.927,359.081,264.077,352.38z M274.669,308.794v-5.437h17.397v5.437H274.669z M237.331,321.842v1.685c0,5.492,0.998,10.873,2.965,15.99 c1.952,5.097,4.808,9.763,8.485,13.861c0.725,0.81,1.381,1.615,1.971,2.425c4.024,5.451,6.151,11.923,6.151,18.719v79.971h-56.54 v-79.971c0-3.885,0.706-7.692,2.101-11.32c1.017-2.65,2.381-5.141,4.086-7.445c0.602-0.827,1.245-1.619,1.922-2.366 c7.39-8.207,11.461-18.813,11.461-29.864v-1.685H237.331z M219.934,308.794v-5.437h17.397v5.437H219.934z M182.607,321.842v1.685 c0,5.492,0.998,10.874,2.969,16.003c1.82,4.723,4.389,9.037,7.635,12.864c-1.124,1.966-2.115,4.009-2.929,6.131 c-1.969,5.123-2.967,10.505-2.967,15.996v79.971h-41.676v-79.971c0-3.885,0.706-7.693,2.096-11.31 c1.406-3.649,3.429-6.953,6.017-9.826c7.389-8.219,11.458-18.822,11.458-29.858v-1.685H182.607z M165.21,308.794v-5.437h17.397 v5.437H165.21z M120.359,467.54h271.282v7.72H120.359V467.54z"/> <path d="M421.857,102.206h-279.48V72.002c10.938-2.891,19.028-12.869,19.028-24.705V6.524c0-3.602-2.922-6.524-6.524-6.524 h-38.056c-3.602,0-6.524,2.922-6.524,6.524v40.774c0,11.835,8.09,21.813,19.028,24.705v30.204H90.143 c-3.603,0-6.524,2.922-6.524,6.524v396.746c0,3.602,2.92,6.524,6.524,6.524h331.714c3.602,0,6.524-2.922,6.524-6.524V108.73 C428.381,105.128,425.459,102.206,421.857,102.206z M123.349,13.048h25.008v6.524h-25.008V13.048z M123.349,47.298V32.619h25.008 v14.679c0,6.895-5.609,12.504-12.504,12.504C128.959,59.802,123.349,54.192,123.349,47.298z M415.333,498.952H96.667V115.254 h318.667V498.952z"/> </g> </g> </g> </g>
</svg>